<?xml version="1.0" standalone="no"?><!DOCTYPE svg PUBLIC "-//W3C//DTD SVG 1.1//EN" "http://www.w3.org/Graphics/SVG/1.1/DTD/svg11.dtd"><svg t="1647486710032" class="icon" viewBox="0 0 1024 1024" version="1.1" xmlns="http://www.w3.org/2000/svg" p-id="1242" xmlns:xlink="http://www.w3.org/1999/xlink" width="200" height="200"><defs><style type="text/css"></style></defs><path d="M630.635981 956.898743c-9.904581 5.718235-22.479991 4.530177-31.818683-2.994194-0.671289-0.528026-31.461549-24.728194-144.965649-93.734848-62.961984-38.257326-117.646444-81.157391-165.863609-118.995161-42.177612-33.106002-81.993432-64.368006-121.486912-88.14555-29.376051-17.71036-46.703695-45.811372-47.578621-77.089749-1.00284-36.293601 20.427238-72.479755 54.617945-92.220354 20.345374-11.746532 42.649356-16.654308 65.271585-14.988366L101.256148 224.111221c-18.750039-34.424021-36.604686-108.777449 28.581966-146.412605 24.794709-13.812587 49.360198-16.452717 72.52785-8.485255 38.561247 13.254885 60.270688 50.895157 64.96971 59.815318l65.685002 107.216906c7.746428-10.951423 18.362206-20.424168 31.751145-28.155246 34.417881-19.343557 65.172325-22.604834 92.690052-10.324136a86.967724 86.967724 0 0 1 16.826224 9.864671c9.204639-13.374612 22.333658-24.482601 41.082674-33.450856 25.529443-12.31242 51.676963-13.598716 75.638701-3.731998 11.145851 4.625344 21.040199 11.279904 29.741371 19.057032 9.624195-13.84431 24.387433-24.179702 43.323714-29.868262 68.484767-20.577664 118.185726 39.488363 135.571699 75.252915l59.638285 102.809527c2.619664 4.233418 74.615395 122.760928 77.412091 280.395108 1.919722 107.554598 3.063779 132.447545 3.425006 138.055263 0.555655 3.091408 0.618077 6.308683 0.167822 9.498328-1.309832 9.112542-6.9022 17.175171-14.872733 20.99722L630.635981 956.898743zM203.379037 535.397896c-16.487509 9.518794-27.691689 26.728758-27.28339 41.812291 0.289596 10.162454 5.998621 18.475793 17.450441 25.396414 42.696428 25.732058 83.965343 58.124815 127.667681 92.409666 49.161676 38.576597 99.996458 78.477352 159.855778 114.837468 75.464739 45.876863 115.562992 72.646554 135.211494 86.425372l266.116917-153.711848c-0.800225-19.986193-1.651616-56.617485-2.87856-126.325103-2.505054-140.879588-67.858504-248.494561-68.515467-249.556753l-60.685127-104.58701a32.06837 32.06837 0 0 1-1.24434-2.375093c-1.041726-2.14485-27.27418-55.289234-66.468855-43.513027-3.209088 0.959861-6.054903 2.167363-8.422833 3.5345-3.955078 2.282996-15.887852 9.172917-7.05058 39.267329 3.829212 9.329483 5.704932 15.462157 5.704932 15.462156 4.508687 14.848173-2.704598 30.207999-16.369829 35.3276-13.81361 5.089925-29.577642-1.700735-36.3243-15.668864-0.602727-1.231037-3.574409-7.574512-6.553253-16.963347-11.497868-26.728758-26.964118-46.216601-41.516556-52.217269-5.718235-2.378164-15.051811-4.616134-30.341028 2.746554-20.410865 9.906627-31.709189 21.261233-19.141966 49.134047l15.374152 24.421203c8.30413 13.18223 5.666046 30.256094-6.118348 39.119972-11.568477 9.128915-28.608571 6.64842-38.720883-5.216815-1.182942-1.379417-11.44875-13.612019-20.132526-31.314193l-9.94756-15.805987a31.847336 31.847336 0 0 1-3.534499-7.806803s-7.361665-22.037922-22.704095-28.728298c-12.825097-5.555529-29.610388 1.204431-41.442877 7.851828l-0.01535 0.00921c-15.564487 8.985652-27.570939 21.322631-15.781428 52.827159l30.944779 50.489928c8.082072 13.174044 5.364171 29.995151-6.255471 38.810934-11.555174 9.076726-28.312836 6.705726-38.495756-4.864798-0.950651-1.12359-23.211654-26.650987-36.953633-59.434647L218.771609 157.613714a27.619034 27.619034 0 0 1-1.375324-2.459005c-3.353374-6.559393-15.621792-25.146727-30.842449-30.2827-7.878434-2.642177-16.417925-1.329275-26.084074 4.091178-34.7085 20.039405-12.525268 63.107293-9.887185 67.974137l178.01844 316.497351c7.003508 12.467963 4.677533 27.871791-5.55246 36.7326-10.225899 8.719592-25.501814 8.65717-36.390815-0.469698-39.771819-33.327036-71.493288-21.104667-83.278705-14.299681z" fill="#f7811c" p-id="1243"></path></svg>