<?xml version="1.0" standalone="no"?><!DOCTYPE svg PUBLIC "-//W3C//DTD SVG 1.1//EN" "http://www.w3.org/Graphics/SVG/1.1/DTD/svg11.dtd"><svg t="1646898502762" class="icon" viewBox="0 0 1024 1024" version="1.1" xmlns="http://www.w3.org/2000/svg" p-id="16158" xmlns:xlink="http://www.w3.org/1999/xlink" width="200" height="200"><defs><style type="text/css"></style></defs><path d="M157.538 0h708.924a39.385 39.385 0 0 1 39.384 39.385v39.384a39.385 39.385 0 0 1-39.384 39.385H157.538a39.385 39.385 0 0 1-39.384-39.385V39.385A39.385 39.385 0 0 1 157.538 0z m630.154 708.923v236.308A78.77 78.77 0 0 1 708.923 1024H315.077a78.77 78.77 0 0 1-78.77-78.77V708.924h-55.69a78.77 78.77 0 0 1-57.698-132.332l331.343-356.904a78.77 78.77 0 0 1 115.476 0L901.08 576.551a78.77 78.77 0 0 1-57.699 132.372h-55.69z" p-id="16159" fill="#ef4136"></path></svg>